<?xml version="1.0" encoding="UTF-8"?>
<svg id="Layer_1" xmlns="http://www.w3.org/2000/svg" version="1.1" viewBox="0 0 335.4 18">
  <!-- Generator: Adobe Illustrator 29.6.1, SVG Export Plug-In . SVG Version: 2.1.1 Build 9)  -->
  <defs>
    <style>
      .st0, .st1 {
        fill: #f58220;
      }

      .st2 {
        fill: #1a1f71;
      }

      .st3 {
        stroke: #e0e0e0;
        stroke-width: .7px;
      }

      .st3, .st4, .st5 {
        fill: #fff;
      }

      .st6 {
        fill: #2a2c83;
        isolation: isolate;
        opacity: .9;
      }

      .st6, .st7, .st8, .st9, .st10, .st1, .st11, .st12 {
        fill-rule: evenodd;
      }

      .st7 {
        fill: #184977;
      }

      .st4 {
        stroke: #184977;
      }

      .st13 {
        fill: #212121;
      }

      .st8 {
        fill: #097a44;
      }

      .st14 {
        fill: #e42b00;
      }

      .st15 {
        fill: #f90;
      }

      .st16 {
        fill: #c00;
      }

      .st9 {
        fill: #f46f20;
      }

      .st17 {
        fill: #4e4e4e;
      }

      .st10 {
        fill: #f16d27;
      }

      .st18 {
        fill: #0079c1;
      }

      .st11 {
        fill: #1740ce;
      }

      .st12 {
        fill: #1a1919;
      }

      .st19 {
        fill: #007bdb;
      }
    </style>
  </defs>
  <path class="st3" d="M333.7.7h-34c-.3,0-.5.1-.7.3-.2.2-.3.4-.3.7v14.7c0,.3.1.5.3.7.2.2.4.3.7.3h34c.3,0,.5-.1.7-.3.2-.2.3-.4.3-.7V1.7c0-.3-.1-.5-.3-.7-.2-.2-.4-.3-.7-.3h0Z"/>
  <path class="st17" d="M312.5,7.2c0,.3-.2.6-.4.8-.2.2-.6.3-.9.3-.2,0-.5,0-.7-.2-.2-.1-.4-.3-.5-.5-.1-.2-.2-.5-.2-.8v-.3c0-.3,0-.5.2-.8.1-.2.3-.4.5-.5s.4-.2.7-.2c.3,0,.6,0,.9.3.2.2.4.5.4.8h-.6c0-.2,0-.4-.2-.5-.1-.1-.3-.2-.5-.2-.1,0-.2,0-.3,0,0,0-.2.1-.2.2-.1.2-.2.5-.2.8v.3c0,.3,0,.5.2.8,0,0,.1.2.2.2,0,0,.2,0,.3,0,.2,0,.4,0,.5-.2.1-.1.2-.3.2-.5h.6ZM314.8,7.5h-1.2l-.3.7h-.6l1.2-3.2h.5l1.2,3.2h-.6l-.2-.7ZM313.7,7h.9l-.5-1.3-.5,1.3ZM317.7,7.4c0,0,0-.1,0-.2,0,0,0-.1-.1-.1-.2-.1-.3-.2-.5-.2-.2,0-.4-.1-.6-.3-.1,0-.2-.2-.3-.3,0-.1-.1-.3-.1-.4,0-.1,0-.2,0-.4,0-.1.1-.2.2-.3.2-.1.5-.2.8-.2.2,0,.4,0,.6.1.2,0,.3.2.4.3,0,.2.2.3.1.5h-.6c0,0,0-.1,0-.2,0,0,0-.1-.1-.2-.1-.1-.3-.2-.5-.2-.1,0-.3,0-.4.1,0,0,0,0-.1.1,0,0,0,.1,0,.2,0,0,0,.1,0,.2,0,0,0,0,.1.1.2.1.3.2.5.2.2,0,.4.1.6.2.1,0,.3.2.3.3,0,.1.1.3.1.4,0,.1,0,.2,0,.4,0,.1-.1.2-.2.3-.2.2-.5.3-.8.2-.2,0-.4,0-.6-.1-.2,0-.3-.2-.5-.4-.1-.2-.2-.3-.2-.5h.6c0,0,0,.2,0,.2,0,0,0,.1.1.2.1.1.3.2.5.2.2,0,.3,0,.4-.1,0,0,.1,0,.1-.1,0,0,0-.1,0-.2h0ZM321.2,8.2h-.5v-1.4h-1.4v1.4h-.6v-3.2h.6v1.4h1.4v-1.4h.5v3.2ZM325.6,6.7c0,.3,0,.6-.2.8,0,.2-.3.4-.5.6-.2.1-.4.2-.7.2s-.5,0-.7-.2c-.2-.1-.4-.3-.5-.5-.1-.3-.2-.5-.2-.8h0c0-.4,0-.7.2-1,.1-.2.3-.4.5-.6.2-.1.3-.2.5-.2s.4,0,.5,0c.2,0,.3.1.5.3.1.1.3.3.3.4.1.3.2.5.2.8h0ZM325,6.5c0-.3,0-.6-.2-.8,0,0-.1-.2-.2-.2,0,0-.2,0-.3,0-.1,0-.2,0-.3,0,0,0-.2.1-.2.2-.1.2-.2.5-.2.8v.2c0,.3,0,.6.2.8,0,0,.1.2.2.2,0,0,.2,0,.3,0,.1,0,.2,0,.3,0,.1,0,.2-.1.2-.2.1-.2.2-.5.2-.8v-.2ZM328.6,8.2h-.6l-1.4-2.2v2.2h-.6v-3.2h.6l1.4,2.3v-2.3h.6v3.2ZM310,13.2v-3.2h1c.3,0,.5,0,.8.2.2.1.4.3.5.5.1.2.2.5.2.8v.2c0,.3,0,.6-.2.8-.1.2-.3.4-.5.5-.2.1-.5.2-.8.2h-1ZM310.6,10.5v2.3h.4c.1,0,.2,0,.4,0,.1,0,.2-.1.3-.2.2-.2.3-.5.2-.8v-.2c0-.3,0-.6-.2-.8,0,0-.2-.2-.3-.2-.1,0-.2,0-.4,0h-.4ZM314.8,11.8h-1.3v1h1.5v.4h-2.1v-3.2h2v.4h-1.5v.9h1.3v.5ZM316.1,12.8h1.4v.4h-2v-3.2h.6v2.8ZM318.5,13.2h-.5v-3.2h.5v3.2ZM320.3,12.5l.8-2.5h.6l-1.2,3.2h-.5l-1.1-3.2h.6l.8,2.5ZM324,11.8h-1.3v1h1.5v.4h-2.1v-3.2h2.1v.4h-1.5v.9h1.3v.5ZM325.9,12h-.6v1.2h-.6v-3.2h1.1c.3,0,.6,0,.9.2.1,0,.2.2.2.3,0,.1,0,.3,0,.4,0,.2,0,.4-.2.5-.1.1-.3.3-.4.3l.7,1.3h-.6l-.6-1.2ZM325.2,11.5h.6c.2,0,.3,0,.4-.1,0,0,0-.1.1-.2,0,0,0-.1,0-.2,0,0,0-.1,0-.2s0-.1-.1-.2c0,0-.1,0-.2-.1,0,0-.2,0-.2,0h-.6v1.1ZM328.4,11.5l.7-1.5h.6l-1.1,2v1.2h-.6v-1.1l-1.1-2h.6l.7,1.5Z"/>
  <path class="st13" d="M303.5,8.1l-.2.5h2.6c0,.3-.2.6-.5.8-.4.3-1,.4-1.5.4h-.5v.6c.2,0,.5,0,.7.2.2.2.4.3.5.6l1.8,2.4h1.1l-2.1-2.7c-.1-.2-.3-.4-.5-.6.5,0,.9-.3,1.3-.6.3-.3.5-.6.5-1h1.1l.2-.5h-1.3c0-.2,0-.5-.2-.7-.1-.2-.3-.4-.5-.6h1.8l.2-.5h-4.6l-.2.5h.9c.4,0,.9.1,1.2.4.2.2.4.5.4.9h-2.4Z"/>
  <path class="st3" d="M292.3.7h-34c-.3,0-.5.1-.7.3-.2.2-.3.4-.3.7v14.7c0,.3.1.5.3.7.2.2.4.3.7.3h34c.3,0,.5-.1.7-.3.2-.2.3-.4.3-.7V1.7c0-.3-.1-.5-.3-.7-.2-.2-.4-.3-.7-.3h0Z"/>
  <path class="st17" d="M272.9,8h-.5l-1.4-2.3v2.3h-.6v-3.2h.6l1.4,2.3v-2.3h.5v3.2ZM275.4,6.6h-1.3v1h1.5v.4h-2.1v-3.2h2.1v.5h-1.5v.9h1.3v.4ZM278.4,5.2h-1v2.8h-.6v-2.8h-1v-.5h2.5v.5ZM270.3,13v-3.2h1.1c.3,0,.6,0,.8.2,0,0,.2.2.2.3,0,.1,0,.2,0,.4,0,.1,0,.3-.1.4,0,.1-.2.2-.3.3.2,0,.3.1.4.3.1.1.2.3.1.5,0,.1,0,.3,0,.4,0,.1-.1.2-.2.3-.2.2-.5.3-.8.2h-1.2ZM270.9,11.6v1h.6c.1,0,.3,0,.4-.1,0,0,0-.1.1-.2,0,0,0-.1,0-.2,0,0,0-.1,0-.2,0,0,0-.1-.1-.2s-.1,0-.2-.1c0,0-.1,0-.2,0h-.7ZM270.9,11.1h.5c.1,0,.3,0,.4-.1,0,0,0,0,.1-.1,0,0,0-.1,0-.2,0,0,0-.1,0-.2,0,0,0-.1-.1-.2-.1,0-.3-.1-.4-.1h-.5v.9ZM275,12.3h-1.2l-.3.7h-.6l1.2-3.2h.5l1.2,3.2h-.6l-.2-.7ZM273.9,11.8h.9l-.5-1.3-.5,1.3ZM278.7,13h-.6l-1.4-2.3v2.3h-.6v-3.2h.6l1.4,2.3v-2.3h.6v3.2ZM280.3,11.6l-.4.4v1h-.6v-3.2h.6v1.5l.3-.4.9-1.1h.7l-1.2,1.4,1.3,1.8h-.7l-1-1.4ZM282.8,13h-.5v-3.2h.5v3.2ZM286,13h-.5l-1.5-2.3v2.3h-.6v-3.2h.6l1.4,2.3v-2.3h.6v3.2ZM289.1,12.6c-.1.2-.3.3-.5.4-.2,0-.5.1-.7.1-.2,0-.5,0-.7-.2-.2-.1-.4-.3-.5-.5-.1-.2-.2-.5-.2-.8v-.2c0-.4,0-.8.4-1.1.1-.1.3-.3.4-.3.2,0,.4,0,.6,0,.3,0,.6,0,.8.3.2.2.4.5.4.8h-.5c0,0,0-.2,0-.2,0,0,0-.1-.2-.2,0,0-.1,0-.2-.1,0,0-.2,0-.2,0-.1,0-.2,0-.3,0s-.2.1-.2.2c-.1.2-.2.5-.2.8v.2c0,.3,0,.6.2.8,0,0,.2.2.3.2.1,0,.2,0,.3,0,.1,0,.2,0,.3,0,.1,0,.2,0,.3-.2v-.6h-.7v-.4h1.2v1.2Z"/>
  <path d="M263.8,4c.3,0,.5.1.7.3s.3.4.3.7v1c.6,0,1.2.3,1.6.8.4.5.6,1.1.6,1.7v2.6c0,.3,0,.6-.2.9-.1.3-.3.6-.5.8-.2.2-.5.4-.8.5-.3.1-.6.2-.9.2s-.6,0-.9-.2-.6-.3-.8-.5c-.2-.2-.4-.5-.5-.8-.1-.3-.2-.6-.2-.9v-2.6c0-.6.2-1.2.6-1.7.4-.5,1-.7,1.6-.8v-1c0,0,0-.1,0-.2,0,0,0-.1-.1-.2,0,0-.1,0-.2-.1,0,0-.1,0-.2,0,0,0-.1,0-.2,0,0,0-.1,0-.2.1,0,0,0,.1-.1.2,0,0,0,.1,0,.2v.2c0,.3,0,.5-.3.7-.2.2-.4.3-.7.3-.3,0-.5-.1-.7-.3-.2-.2-.3-.4-.3-.7,0,0,0,0,0-.1,0,0,0,0,0,0,0,0,0,0,.1,0,0,0,0,0,.1,0,0,0,0,0,0,0,0,0,0,0,0,.1,0,0,0,.2,0,.2,0,0,0,.1.1.2,0,0,.1.1.2.1,0,0,.1,0,.2,0s.2,0,.2,0c0,0,.1,0,.2-.1,0,0,0-.1.1-.2,0,0,0-.1,0-.2v-.3c0-.3,0-.5.3-.7.2-.2.4-.3.7-.3h0ZM264.6,7s0,0-.1,0c0,0,0,0-.1,0,0,0,0,0,0,0,0,0,0,0,0,.1v1.2s0,0,0,.1c0,0,0,0,0,.1,0,0,0,0,.1,0,0,0,0,0,.1,0h.2c0-.1,0-.1,0-.2,0,0,0,0,0-.1v-1.1s0,0,0-.1c0,0,0,0,0,0h-.1c0,0,0,0-.1,0h0Z"/>
  <path class="st3" d="M251.7.7h-30c-.3,0-.5.1-.7.3-.2.2-.3.4-.3.7v14.7c0,.3.1.5.3.7.2.2.4.3.7.3h30c.3,0,.5-.1.7-.3.2-.2.3-.4.3-.7V1.7c0-.3-.1-.5-.3-.7-.2-.2-.4-.3-.7-.3h0Z"/>
  <path class="st6" d="M225.3,10.6s.1-.6.5-2c.3-1.1.6-2.1.6-2.2v-.3h1.3c1.4,0,1.6,0,1.8.2.4.2.5.5.4,1-.1.4-.4.8-.8,1.1,0,0-.2.1-.2.2s0,0,.1.2c0,0,.1.1.2.2,0,.3,0,.5,0,.8,0,.2,0,.4-.1.6v.3h-.6c-.2,0-.4,0-.6,0,0,0,0-.2,0-.6,0-.4.1-.6,0-.7-.1-.1-.2-.2-.6-.2s-.4,0-.4,0-.1.2-.3.9l-.2.6h-.5c-.2,0-.4,0-.6,0h0ZM228.3,8.1c.3,0,.4-.2.4-.6,0,0,0-.1,0-.2,0,0-.3-.1-.8,0h-.4v.2c-.1.2-.2.4-.2.7,0,0,0,0,.1,0,.3,0,.7,0,1,0h0ZM230.3,10.7c-.2,0-.3-.2-.4-.3-.1-.3,0-.8.4-2.3,0-.3.2-.6.2-.6h.5c.2,0,.3,0,.5,0h0v.3c-.3.6-.4,1.4-.5,1.7,0,.2,0,.3,0,.3s.4.2.6,0,.3-.3.8-1.9c0-.2,0-.3.2-.4h0c0,0,.5,0,.5,0h.5s-.6,2.2-.8,3.1h0c0,.1-1,.1-1,.1,0,0,0-.1,0-.1.1-.3,0-.3-.4,0-.2.2-.5.3-.8.3-.1,0-.3,0-.4,0h0ZM233.6,10.6c.1-.8.3-1.5.6-2.2l.6-2.2h1c1.3,0,1.6,0,1.8.2.2,0,.3.2.4.4,0,.2.1.4.1.6s0,.4-.1.5c0,.3-.3.6-.5.8-.2.2-.5.4-.8.5-.2,0-.5,0-.7,0-.9,0-.9,0-.9.2,0,.2-.1.4-.2.7l-.2.6h-.6c-.2,0-.4,0-.6,0h0ZM236.3,8.3c.1,0,.2,0,.3,0,.1,0,.2-.1.2-.2,0,0,0-.2,0-.3,0,0,0-.2,0-.3,0-.1-.2-.2-.7-.2-.2,0-.3,0-.5,0-.1.3-.2.6-.2.9,0,0,0,0,0,0,.3,0,.5,0,.8,0h0ZM238,10.7c-.3-.1-.4-.4-.3-.9.2-.7.5-.9,1.7-1.1.7-.1.9-.2,1-.5s-.1-.3-.4-.3c0,0-.2,0-.3,0,0,0-.2,0-.2.2h-.1c0,.1-.4.1-.4.1-.4,0-.6,0-.6,0,0-.2.2-.3.3-.5.2-.2.4-.3.7-.3.6-.2,1.2-.2,1.8,0,.2,0,.3.2.4.4,0,.1,0,.3-.3,1.5-.1.6-.3,1.2-.3,1.2h0c0,.1-.4.1-.4.1h-.7q0-.3-.5-.1c-.3.1-.6.2-.9.2-.2,0-.3,0-.5,0h0ZM239.7,10.1c.1,0,.2-.2.3-.3,0-.1.1-.3.1-.4h0c0-.1-.2-.1-.2-.1-.3,0-.6.1-.8.3,0,0-.1,0-.2.1,0,0,0,.1,0,.2,0,.1,0,.2.1.2.2,0,.4,0,.7,0h0ZM241.3,12.1c-.1,0-.1,0,0-.4.1-.3,0-.4.4-.5.3,0,.4-.1.5-.2,0-.7,0-1.5,0-2.2,0-.4,0-.8,0-1.3h1.1v1c0,.3,0,.7,0,1,0,0,.3-.3,1.1-1.8v-.2h.6c.2,0,.3,0,.5,0,0,0-.7,1.3-1.4,2.5-1,1.7-1.2,2-1.7,2.1-.3,0-.7,0-1,0h0Z"/>
  <path class="st8" d="M245.8,11.7l1.4-5.1,1.3,2.6-2.7,2.4Z"/>
  <path class="st9" d="M244.9,11.7l1.4-5.1,1.3,2.6-2.8,2.5Z"/>
  <path class="st5" d="M214.4,1h-28.9c-.3,0-.6.1-.9.4-.2.2-.4.5-.4.9v13.5c0,.3.1.6.4.9s.5.4.9.4h28.9c.3,0,.6-.1.9-.4s.4-.5.4-.9V2.2c0-.3-.1-.6-.4-.9-.2-.2-.5-.4-.9-.4Z"/>
  <path class="st0" d="M195.4,17h19c.2,0,.3,0,.5,0,.2,0,.3-.2.4-.3.1-.1.2-.3.3-.4,0-.1,0-.3,0-.5v-5.8s-7.1,4.8-20.2,7h0Z"/>
  <path class="st12" d="M189.1,8.4c-.3.2-.6.3-1,.3h-.2v-2.4h.2c.2,0,.4,0,.5,0,.2,0,.3.1.5.2.1.1.2.3.3.4,0,.2.1.3.1.5,0,.2,0,.3-.1.5,0,.2-.2.3-.3.4h0ZM188.2,5.7h-1.1v3.7h1.1c.5,0,1-.1,1.4-.4.2-.2.4-.4.5-.6.1-.2.2-.5.2-.8,0-.3,0-.5-.2-.7-.1-.2-.3-.4-.4-.6-.2-.2-.4-.3-.6-.4-.2,0-.5-.1-.7,0h0ZM190.6,5.7h.7v3.7h-.7v-3.7ZM193.1,7.1c-.4-.2-.6-.3-.6-.5s.2-.4.6-.4c.1,0,.2,0,.3,0,.1,0,.2.1.3.2l.4-.5c-.3-.3-.7-.4-1.1-.4-.3,0-.6,0-.8.3-.2.2-.4.5-.4.7,0,.5.2.8.9,1,.2,0,.3.1.5.2,0,0,.1,0,.2.2,0,0,0,.1,0,.2,0,0,0,.1,0,.2,0,0,0,.1-.1.2,0,0-.1,0-.2.1,0,0-.1,0-.2,0-.2,0-.3,0-.5-.1-.1,0-.3-.2-.3-.4l-.5.4c.1.2.3.4.6.5.2.1.5.2.8.2.2,0,.3,0,.5,0,.2,0,.3-.1.4-.3.1-.1.2-.3.3-.4,0-.2.1-.3.1-.5,0-.6-.3-.8-1.1-1.1h0ZM194.4,7.5c0,.3,0,.5.2.8.1.2.3.5.4.6.2.2.4.3.6.4s.5.1.8.1c.3,0,.6,0,.9-.2v-.8c-.1.1-.3.2-.4.3-.2,0-.3.1-.5.1-.2,0-.3,0-.5,0-.2,0-.3-.2-.4-.3-.1-.1-.2-.3-.3-.4s0-.3,0-.5c0-.2,0-.3,0-.5,0-.2.2-.3.3-.4.1-.1.3-.2.4-.3.2,0,.3,0,.5,0,.2,0,.3,0,.5.1.2,0,.3.2.4.3v-.8c-.3-.1-.6-.2-.9-.2-.5,0-1,.2-1.4.5-.4.4-.6.8-.6,1.4h0ZM203.4,8.1l-1-2.5h-.8l1.6,3.8h.4l1.6-3.8h-.8l-1,2.5h0ZM205.5,9.4h2.1v-.6h-1.4v-1h1.3v-.6h-1.3v-.8h1.4v-.6h-2.1v3.7ZM209.1,7.4h-.2v-1.1h.2c.5,0,.7.2.7.5s-.2.6-.7.6h0ZM210.6,6.7c0-.7-.5-1.1-1.3-1.1h-1.1v3.7h.7v-1.5h.1l1,1.5h.9l-1.2-1.5c.2,0,.5-.2.6-.3.2-.2.2-.4.2-.7h0Z"/>
  <path class="st1" d="M201.7,7.5c0,.5-.2,1-.6,1.4-.4.4-.9.6-1.4.6s-1-.2-1.4-.6c-.4-.4-.6-.9-.6-1.4s.2-1,.6-1.4.9-.6,1.4-.6,1,.2,1.4.6.6.9.6,1.4h0Z"/>
  <path class="st3" d="M178.3.7h-30c-.3,0-.5.1-.7.3-.2.2-.3.4-.3.7v14.7c0,.3.1.5.3.7.2.2.4.3.7.3h30c.3,0,.5-.1.7-.3.2-.2.3-.4.3-.7V1.7c0-.3-.1-.5-.3-.7-.2-.2-.4-.3-.7-.3h0Z"/>
  <path class="st7" d="M160.3,4h6.1c1.3,0,2.6.5,3.5,1.5.9.9,1.5,2.2,1.5,3.5s-.3,2-.8,2.8c-.5.8-1.3,1.5-2.2,1.8-.6.3-1.3.4-1.9.4h-6.1V4Z"/>
  <path class="st4" d="M160.3,13.5c.9,0,1.8-.3,2.5-.8.7-.5,1.3-1.2,1.6-2,.3-.8.4-1.7.2-2.6-.2-.9-.6-1.7-1.2-2.3-.6-.6-1.4-1-2.3-1.2-.9-.2-1.8,0-2.6.3-.8.3-1.5.9-2,1.7-.5.7-.8,1.6-.8,2.5,0,.6.1,1.2.4,1.7.2.5.6,1,1,1.5.4.4.9.7,1.5,1,.6.2,1.1.3,1.7.3h0Z"/>
  <path class="st7" d="M162.3,9c0-.5-.1-1-.4-1.4-.3-.4-.7-.7-1.1-.9v4.5c.4-.2.8-.5,1.1-.9.3-.4.4-.9.4-1.4h0ZM159.8,11.3v-4.5c-.5.2-.8.5-1.1.9-.3.4-.4.9-.4,1.4s.1,1,.4,1.4c.3.4.7.7,1.1.9h0Z"/>
  <path class="st3" d="M141.7.7h-30c-.3,0-.5.1-.7.3-.2.2-.3.4-.3.7v14.7c0,.3.1.5.3.7.2.2.4.3.7.3h30c.3,0,.5-.1.7-.3.2-.2.3-.4.3-.7V1.7c0-.3-.1-.5-.3-.7-.2-.2-.4-.3-.7-.3h0Z"/>
  <path class="st18" d="M128.8,11.7l-.3-.3v.3h-.9v-.6c-.1,0-.2,0-.4,0h-.3v.5h-1.4l-.2-.3-.2.3h-2.3v-2.2h2.3l.2.3.2-.3h8.4V2h-13.9v5.9l.5-1.2h.9l.3.7v-.7h1.1l.2.5.2-.5h5v.2c.2-.2.5-.3.7-.2h1.6l.3.7v-.7h.9l.2.4v-.4h1v2.2h-1l-.2-.4v.4h-1.4v-.3h-.5v.3h-1c-.3,0-.5,0-.7-.2v.2h-1.4l-.3-.3v.3h-5.2v-.3h-.5v.3h-.7v7.1h13.9v-4.4c-.2.1-.3.2-.5.2h-4.6Z"/>
  <path class="st18" d="M133.9,9.8l-.2.4-.8-.2s0,0,0,0,0,0,0,0c0,0,0,0,0,0,0,0,0,0,0,0,0,0,0,0,0,0h.4c.3,0,.5.2.5.5,0,0,0,.1,0,.2,0,0,0,.1-.1.2,0,0-.1,0-.2.1,0,0-.1,0-.2,0h-.9v-.4h.9s0,0,0,0c0,0,0,0,0,0h-.5c0,0-.1,0-.2,0,0,0-.1,0-.2-.1,0,0,0-.1-.1-.2,0,0,0-.1,0-.2,0,0,0-.1,0-.2,0,0,0-.1.1-.2,0,0,.1,0,.2-.1,0,0,.1,0,.2,0h.9Z"/>
  <path class="st3" d="M105,.7h-30c-.3,0-.5.1-.7.3-.2.2-.3.4-.3.7v14.7c0,.3.1.5.3.7.2.2.4.3.7.3h30c.3,0,.5-.1.7-.3.2-.2.3-.4.3-.7V1.7c0-.3-.1-.5-.3-.7-.2-.2-.4-.3-.7-.3h0Z"/>
  <path class="st19" d="M86.5,14c1,0,2-.3,2.8-.8.8-.5,1.5-1.3,1.8-2.2.4-.9.5-1.9.3-2.9-.2-1-.7-1.9-1.4-2.6-.7-.7-1.6-1.2-2.6-1.4-1-.2-2,0-2.9.3-.9.4-1.7,1-2.2,1.8-.5.8-.8,1.8-.8,2.8s.5,2.6,1.5,3.5c.9.9,2.2,1.5,3.5,1.5h0Z"/>
  <path class="st14" d="M93.5,14c1,0,1.9-.3,2.8-.9.8-.6,1.4-1.3,1.8-2.3.4-.9.5-1.9.3-2.9-.2-1-.7-1.9-1.4-2.5-.7-.7-1.6-1.2-2.6-1.4-1-.2-2,0-2.9.3-.9.4-1.7,1-2.2,1.8-.5.8-.8,1.8-.8,2.8,0,.7.1,1.3.4,1.9.3.6.6,1.2,1.1,1.6.5.5,1,.8,1.6,1.1.6.2,1.3.4,1.9.4h0Z"/>
  <path class="st11" d="M90,12.6c.9-1,1.4-2.2,1.5-3.6,0-1.3-.6-2.6-1.5-3.6-.5.5-.9,1-1.1,1.6-.3.6-.4,1.3-.4,2,0,.7.1,1.3.4,2,.3.6.7,1.2,1.1,1.6h0Z"/>
  <path class="st3" d="M68.3.7h-30c-.3,0-.5.1-.7.3-.2.2-.3.4-.3.7v14.7c0,.3.1.5.3.7.2.2.4.3.7.3h30c.3,0,.5-.1.7-.3s.3-.4.3-.7V1.7c0-.3-.1-.5-.3-.7-.2-.2-.4-.3-.7-.3h0Z"/>
  <path class="st16" d="M49.8,14c1,0,1.9-.3,2.8-.9.8-.6,1.4-1.3,1.8-2.3.4-.9.5-1.9.3-2.9-.2-1-.7-1.9-1.4-2.5-.7-.7-1.6-1.2-2.6-1.4-1-.2-2,0-2.9.3-.9.4-1.7,1-2.2,1.8-.5.8-.8,1.8-.8,2.8,0,.7.1,1.3.4,1.9.3.6.6,1.2,1.1,1.6.5.5,1,.8,1.6,1.1.6.2,1.3.4,1.9.4h0Z"/>
  <path class="st15" d="M56.9,14c1,0,2-.3,2.8-.8.8-.5,1.5-1.3,1.8-2.2.4-.9.5-1.9.3-2.9-.2-1-.7-1.9-1.4-2.6-.7-.7-1.6-1.2-2.6-1.4-1-.2-2,0-2.9.3-.9.4-1.7,1-2.2,1.8-.5.8-.8,1.8-.8,2.8s.5,2.6,1.5,3.5c.9.9,2.2,1.5,3.5,1.5h0Z"/>
  <path class="st10" d="M53.3,12.6c.9-1,1.4-2.2,1.5-3.6,0-1.3-.6-2.6-1.5-3.6-.5.5-.9,1-1.1,1.6-.3.6-.4,1.3-.4,2,0,.7.1,1.3.4,1.9.3.6.6,1.2,1.1,1.6h0Z"/>
  <path class="st3" d="M31.7.7H1.7c-.3,0-.5.1-.7.3-.2.2-.3.4-.3.7v14.7c0,.3.1.5.3.7.2.2.4.3.7.3h30c.3,0,.5-.1.7-.3.2-.2.3-.4.3-.7V1.7c0-.3-.1-.5-.3-.7-.2-.2-.4-.3-.7-.3h0Z"/>
  <path class="st2" d="M14,5.8l-2.8,6.6h-1.8l-1.4-5.2c0-.1,0-.2-.1-.3,0-.1-.2-.2-.3-.2-.5-.2-1.1-.4-1.7-.5v-.2h2.9c.2,0,.4,0,.5.2.1.1.2.3.3.5l.7,3.8,1.8-4.5h1.8ZM21,10.2c0-1.7-2.4-1.8-2.4-2.6,0-.2.2-.5.7-.5.6,0,1.1,0,1.7.3l.3-1.4c-.5-.2-1-.3-1.6-.3-1.7,0-2.9.9-2.9,2.2,0,.9.8,1.5,1.5,1.8.6.3.9.5.9.8,0,.4-.5.6-1,.6-.6,0-1.2-.1-1.7-.4l-.3,1.4c.6.2,1.2.4,1.9.3,1.8,0,3-.9,3-2.2h0ZM25.4,12.4h1.6l-1.4-6.6h-1.4c-.2,0-.3,0-.4.1-.1,0-.2.2-.3.4l-2.5,6.1h1.8l.4-1h2.2l.2,1ZM23.5,10l.9-2.5.5,2.5h-1.4ZM16.4,5.8l-1.4,6.6h-1.7l1.4-6.6h1.7Z"/>
</svg>