<?xml version="1.0" encoding="UTF-8"?>
<svg id="Layer_1" xmlns="http://www.w3.org/2000/svg" version="1.1" viewBox="0 0 802.9 95.6">
  <!-- Generator: Adobe Illustrator 29.6.1, SVG Export Plug-In . SVG Version: 2.1.1 Build 9)  -->
  <defs>
    <style>
      .st0 {
        fill: #fff;
      }
    </style>
  </defs>
  <polygon class="st0" points="113.6 79 110.3 94.6 3 94.6 74.5 16.8 9 16.8 9 1 108.2 1 103.4 10.8 39.7 79 113.6 79"/>
  <polygon class="st0" points="157.1 94.6 157.1 78.2 258.1 78.2 253.3 94.6 157.1 94.6"/>
  <polygon class="st0" points="157.1 54.3 157.1 39.7 256.9 39.7 251.8 54.3 157.1 54.3"/>
  <polygon class="st0" points="157.1 16.8 157.1 1 258.1 1 252.1 16.8 157.1 16.8"/>
  <polygon class="st0" points="302.5 94.6 318.6 94.6 318.6 24.8 385.3 94.6 401.1 94.6 401.1 1 384.7 1 384.7 70.7 318.9 1 302.5 1 302.5 94.6"/>
  <polygon class="st0" points="461.9 94.6 445.5 94.6 445.5 1 541.2 1 535.2 17.1 461.9 17.1 462.2 39.7 531.1 39.7 525.7 54.3 461.6 54.3 461.9 94.6"/>
  <polygon class="st0" points="551.6 94.6 600.5 1 618.1 1 666.4 94.6 647.3 94.6 609 20.4 570.4 94.6 551.6 94.6"/>
  <polygon class="st0" points="701.8 16.5 704.5 1 798.7 1 794.5 10.5 731.6 78.5 799.9 78.5 798.1 94.6 695.3 94.6 765.6 16.2 701.8 16.5"/>
</svg>